STARTFONT 2.1
FONT -FontForge-Titillium Web-Book-R-Normal--16-150-75-75-P-78-ISO10646-1
SIZE 15 75 75
FONTBOUNDINGBOX 21 22 -4 -5
COMMENT "Generated by fontforge, http://fontforge.sourceforge.net"
COMMENT "Copyright (c) 2009-2011 by Accademia di Belle Arti di Urbino and students of MA course of Visual design. Some rights reserved."
STARTPROPERTIES 40
FOUNDRY "FontForge"
FAMILY_NAME "Titillium Web"
WEIGHT_NAME "Book"
SLANT "R"
SETWIDTH_NAME "Normal"
ADD_STYLE_NAME ""
PIXEL_SIZE 16
POINT_SIZE 150
RESOLUTION_X 75
RESOLUTION_Y 75
SPACING "P"
AVERAGE_WIDTH 78
CHARSET_REGISTRY "ISO10646"
CHARSET_ENCODING "1"
FONTNAME_REGISTRY ""
CHARSET_COLLECTIONS "ISO8859-2 ISO8859-9 ISO8859-4 ISO10646-1"
FONT_NAME "TitilliumWeb-Regular"
FACE_NAME "Titillium Web Regular"
COPYRIGHT "Copyright (c) 2009-2011 by Accademia di Belle Arti di Urbino and students of MA course of Visual design. Some rights reserved."
FONT_VERSION "1.002;PS 57.000;hotconv 1.0.70;makeotf.lib2.5.55311"
FONT_ASCENT 13
FONT_DESCENT 3
UNDERLINE_POSITION -2
UNDERLINE_THICKNESS 1
X_HEIGHT 7
CAP_HEIGHT 10
RAW_ASCENT 800
RAW_DESCENT 200
NORM_SPACE 4
RELATIVE_WEIGHT 40
RELATIVE_SETWIDTH 50
SUPERSCRIPT_X 0
SUPERSCRIPT_Y 5
SUPERSCRIPT_SIZE 9
SUBSCRIPT_X 0
SUBSCRIPT_Y 1
SUBSCRIPT_SIZE 9
FIGURE_WIDTH 9
AVG_LOWERCASE_WIDTH 76
AVG_UPPERCASE_WIDTH 93
ENDPROPERTIES
CHARS 410
STARTCHAR space
ENCODING 32
SWIDTH 220 0
DWIDTH 4 0
BBX 1 1 0 0
BITMAP
00
ENDCHAR
STARTCHAR exclam
ENCODING 33
SWIDTH 247 0
DWIDTH 4 0
BBX 2 11 1 0
BITMAP
C0
C0
C0
C0
C0
C0
C0
00
00
C0
C0
ENDCHAR
STARTCHAR quotedbl
ENCODING 34
SWIDTH 373 0
DWIDTH 6 0
BBX 4 3 1 8
BITMAP
90
90
90
ENDCHAR
STARTCHAR numbersign
ENCODING 35
SWIDTH 560 0
DWIDTH 9 0
BBX 9 11 0 0
BITMAP
2200
2200
2200
FF80
2200
2200
2200
FF80
2200
2200
2200
ENDCHAR
STARTCHAR dollar
ENCODING 36
SWIDTH 560 0
DWIDTH 9 0
BBX 7 15 1 -2
BITMAP
08
08
3C
4A
90
90
D0
78
16
12
12
16
FC
20
20
ENDCHAR
STARTCHAR percent
ENCODING 37
SWIDTH 560 0
DWIDTH 9 0
BBX 9 11 0 0
BITMAP
6200
5400
9400
5400
6800
0800
0800
1700
1480
1500
3700
ENDCHAR
STARTCHAR ampersand
ENCODING 38
SWIDTH 688 0
DWIDTH 11 0
BBX 10 11 1 0
BITMAP
3C00
6600
4200
6600
3C00
D900
8D00
8700
8300
C380
7CC0
ENDCHAR
STARTCHAR quotesingle
ENCODING 39
SWIDTH 208 0
DWIDTH 3 0
BBX 1 3 1 8
BITMAP
80
80
80
ENDCHAR
STARTCHAR parenleft
ENCODING 40
SWIDTH 264 0
DWIDTH 4 0
BBX 3 14 1 -2
BITMAP
60
40
40
C0
80
80
80
80
80
80
C0
40
40
60
ENDCHAR
STARTCHAR parenright
ENCODING 41
SWIDTH 264 0
DWIDTH 4 0
BBX 2 14 1 -2
BITMAP
80
80
C0
40
40
40
40
40
40
40
40
C0
80
80
ENDCHAR
STARTCHAR asterisk
ENCODING 42
SWIDTH 420 0
DWIDTH 7 0
BBX 5 5 1 6
BITMAP
B0
E0
78
A0
30
ENDCHAR
STARTCHAR plus
ENCODING 43
SWIDTH 560 0
DWIDTH 9 0
BBX 7 8 1 0
BITMAP
10
10
10
FE
FE
10
10
10
ENDCHAR
STARTCHAR comma
ENCODING 44
SWIDTH 223 0
DWIDTH 4 0
BBX 2 4 1 -2
BITMAP
C0
80
80
80
ENDCHAR
STARTCHAR hyphen
ENCODING 45
SWIDTH 438 0
DWIDTH 7 0
BBX 5 1 1 4
BITMAP
F8
ENDCHAR
STARTCHAR period
ENCODING 46
SWIDTH 216 0
DWIDTH 3 0
BBX 1 2 1 0
BITMAP
80
80
ENDCHAR
STARTCHAR slash
ENCODING 47
SWIDTH 412 0
DWIDTH 7 0
BBX 5 11 1 0
BITMAP
08
18
10
30
20
20
40
40
C0
80
80
ENDCHAR
STARTCHAR zero
ENCODING 48
SWIDTH 560 0
DWIDTH 9 0
BBX 7 11 1 0
BITMAP
38
6C
82
82
82
82
82
82
82
C6
7C
ENDCHAR
STARTCHAR one
ENCODING 49
SWIDTH 560 0
DWIDTH 9 0
BBX 4 11 2 0
BITMAP
10
70
D0
90
10
10
10
10
10
10
10
ENDCHAR
STARTCHAR two
ENCODING 50
SWIDTH 560 0
DWIDTH 9 0
BBX 7 11 1 0
BITMAP
78
CC
06
06
04
0C
18
30
60
40
FE
ENDCHAR
STARTCHAR three
ENCODING 51
SWIDTH 560 0
DWIDTH 9 0
BBX 7 11 1 0
BITMAP
78
8C
06
06
04
78
06
02
02
06
FC
ENDCHAR
STARTCHAR four
ENCODING 52
SWIDTH 560 0
DWIDTH 9 0
BBX 7 11 1 0
BITMAP
10
30
20
60
40
44
84
84
FE
04
04
ENDCHAR
STARTCHAR five
ENCODING 53
SWIDTH 560 0
DWIDTH 9 0
BBX 7 11 1 0
BITMAP
FE
FE
80
80
B8
EE
02
02
02
06
FC
ENDCHAR
STARTCHAR six
ENCODING 54
SWIDTH 560 0
DWIDTH 9 0
BBX 7 11 1 0
BITMAP
3E
62
C0
80
98
FE
82
82
82
46
7C
ENDCHAR
STARTCHAR seven
ENCODING 55
SWIDTH 560 0
DWIDTH 9 0
BBX 7 11 1 0
BITMAP
FE
FE
06
04
0C
08
08
10
10
20
20
ENDCHAR
STARTCHAR eight
ENCODING 56
SWIDTH 560 0
DWIDTH 9 0
BBX 7 11 1 0
BITMAP
38
C6
82
82
C6
7C
C6
82
82
82
7C
ENDCHAR
STARTCHAR nine
ENCODING 57
SWIDTH 560 0
DWIDTH 9 0
BBX 7 11 1 0
BITMAP
38
CC
86
82
82
C6
7E
02
02
04
F8
ENDCHAR
STARTCHAR colon
ENCODING 58
SWIDTH 217 0
DWIDTH 3 0
BBX 1 7 1 0
BITMAP
80
80
00
00
00
80
80
ENDCHAR
STARTCHAR semicolon
ENCODING 59
SWIDTH 248 0
DWIDTH 4 0
BBX 2 9 1 -2
BITMAP
C0
C0
00
00
00
C0
80
80
80
ENDCHAR
STARTCHAR less
ENCODING 60
SWIDTH 560 0
DWIDTH 9 0
BBX 7 8 1 0
BITMAP
02
0E
30
C0
C0
30
0E
02
ENDCHAR
STARTCHAR equal
ENCODING 61
SWIDTH 560 0
DWIDTH 9 0
BBX 7 4 1 2
BITMAP
FE
00
00
FE
ENDCHAR
STARTCHAR greater
ENCODING 62
SWIDTH 560 0
DWIDTH 9 0
BBX 7 8 1 0
BITMAP
80
E0
18
06
06
38
E0
80
ENDCHAR
STARTCHAR question
ENCODING 63
SWIDTH 447 0
DWIDTH 7 0
BBX 6 11 1 0
BITMAP
F8
08
0C
08
18
30
60
60
00
60
60
ENDCHAR
STARTCHAR at
ENCODING 64
SWIDTH 977 0
DWIDTH 16 0
BBX 14 15 1 -3
BITMAP
0300
1EF0
6018
4008
C7CC
8844
8844
8844
8844
8844
88CC
C7F8
4000
6000
1F80
ENDCHAR
STARTCHAR A
ENCODING 65
SWIDTH 596 0
DWIDTH 10 0
BBX 9 11 0 0
BITMAP
1C00
1600
1200
3200
2200
2300
2100
7F00
4100
4080
C080
ENDCHAR
STARTCHAR B
ENCODING 66
SWIDTH 616 0
DWIDTH 10 0
BBX 8 11 1 0
BITMAP
FE
C2
C3
C3
C2
FE
C3
C1
C1
C3
FE
ENDCHAR
STARTCHAR C
ENCODING 67
SWIDTH 544 0
DWIDTH 9 0
BBX 7 11 1 0
BITMAP
7E
40
C0
80
80
80
80
80
C0
40
7E
ENDCHAR
STARTCHAR D
ENCODING 68
SWIDTH 645 0
DWIDTH 10 0
BBX 8 11 1 0
BITMAP
FE
C3
C1
C1
C1
C1
C1
C1
C1
C2
FC
ENDCHAR
STARTCHAR E
ENCODING 69
SWIDTH 553 0
DWIDTH 9 0
BBX 7 11 1 0
BITMAP
FE
C0
C0
C0
C0
FC
C0
C0
C0
C0
FE
ENDCHAR
STARTCHAR F
ENCODING 70
SWIDTH 526 0
DWIDTH 8 0
BBX 7 11 1 0
BITMAP
FE
C0
C0
C0
C0
FC
C0
C0
C0
C0
C0
ENDCHAR
STARTCHAR G
ENCODING 71
SWIDTH 616 0
DWIDTH 10 0
BBX 8 11 1 0
BITMAP
7F
40
C0
80
80
87
81
81
C1
41
3F
ENDCHAR
STARTCHAR H
ENCODING 72
SWIDTH 675 0
DWIDTH 11 0
BBX 8 11 1 0
BITMAP
C1
C1
C1
C1
C1
FF
C1
C1
C1
C1
C1
ENDCHAR
STARTCHAR I
ENCODING 73
SWIDTH 246 0
DWIDTH 4 0
BBX 2 11 1 0
BITMAP
C0
C0
C0
C0
C0
C0
C0
C0
C0
C0
C0
ENDCHAR
STARTCHAR J
ENCODING 74
SWIDTH 289 0
DWIDTH 5 0
BBX 3 12 0 -1
BITMAP
20
20
20
20
20
20
20
20
20
20
20
E0
ENDCHAR
STARTCHAR K
ENCODING 75
SWIDTH 569 0
DWIDTH 9 0
BBX 8 11 1 0
BITMAP
C3
C6
C4
CC
C8
F0
C8
CC
C4
C6
C3
ENDCHAR
STARTCHAR L
ENCODING 76
SWIDTH 479 0
DWIDTH 8 0
BBX 6 11 1 0
BITMAP
C0
C0
C0
C0
C0
C0
C0
C0
C0
C0
FC
ENDCHAR
STARTCHAR M
ENCODING 77
SWIDTH 840 0
DWIDTH 13 0
BBX 11 11 1 0
BITMAP
E060
E0E0
E0A0
D0A0
D1A0
D120
C920
CA20
CA20
C620
C420
ENDCHAR
STARTCHAR N
ENCODING 78
SWIDTH 676 0
DWIDTH 11 0
BBX 8 11 1 0
BITMAP
E1
E1
D1
D1
D9
C9
C9
C5
C5
C3
C3
ENDCHAR
STARTCHAR O
ENCODING 79
SWIDTH 660 0
DWIDTH 11 0
BBX 9 11 1 0
BITMAP
3E00
4300
C100
8180
8180
8180
8180
8180
C100
4300
3E00
ENDCHAR
STARTCHAR P
ENCODING 80
SWIDTH 593 0
DWIDTH 9 0
BBX 8 11 1 0
BITMAP
FE
C3
C1
C1
C1
C3
FE
C0
C0
C0
C0
ENDCHAR
STARTCHAR Q
ENCODING 81
SWIDTH 660 0
DWIDTH 11 0
BBX 9 13 1 -2
BITMAP
3E00
4300
C100
8180
8180
8180
8180
8180
C100
4300
3E00
0200
0100
ENDCHAR
STARTCHAR R
ENCODING 82
SWIDTH 616 0
DWIDTH 10 0
BBX 8 11 1 0
BITMAP
FE
C3
C1
C1
C1
C2
FC
C4
C2
C2
C3
ENDCHAR
STARTCHAR S
ENCODING 83
SWIDTH 542 0
DWIDTH 9 0
BBX 7 11 1 0
BITMAP
7E
80
80
80
E0
3C
06
02
02
06
FC
ENDCHAR
STARTCHAR T
ENCODING 84
SWIDTH 526 0
DWIDTH 8 0
BBX 8 11 0 0
BITMAP
FF
08
08
08
08
08
08
08
08
08
08
ENDCHAR
STARTCHAR U
ENCODING 85
SWIDTH 644 0
DWIDTH 10 0
BBX 8 11 1 0
BITMAP
C1
C1
C1
C1
C1
C1
C1
C1
C1
43
7E
ENDCHAR
STARTCHAR V
ENCODING 86
SWIDTH 582 0
DWIDTH 9 0
BBX 9 11 0 0
BITMAP
C180
4180
4100
6100
2300
2200
2200
3200
1600
1400
1C00
ENDCHAR
STARTCHAR W
ENCODING 87
SWIDTH 886 0
DWIDTH 14 0
BBX 14 11 0 0
BITMAP
C30C
4308
4308
4288
6488
2498
2490
24D0
2C50
3850
1870
ENDCHAR
STARTCHAR X
ENCODING 88
SWIDTH 558 0
DWIDTH 9 0
BBX 9 11 0 0
BITMAP
C180
6300
2200
3400
1400
0800
1400
1400
2200
6300
C180
ENDCHAR
STARTCHAR Y
ENCODING 89
SWIDTH 538 0
DWIDTH 9 0
BBX 8 11 0 0
BITMAP
C1
43
22
24
14
18
08
08
08
08
08
ENDCHAR
STARTCHAR Z
ENCODING 90
SWIDTH 536 0
DWIDTH 9 0
BBX 7 11 1 0
BITMAP
FE
06
04
08
18
10
20
60
C0
80
FE
ENDCHAR
STARTCHAR bracketleft
ENCODING 91
SWIDTH 329 0
DWIDTH 5 0
BBX 4 14 1 -2
BITMAP
F0
80
80
80
80
80
80
80
80
80
80
80
80
F0
ENDCHAR
STARTCHAR backslash
ENCODING 92
SWIDTH 436 0
DWIDTH 7 0
BBX 6 11 0 0
BITMAP
C0
40
20
20
30
10
18
08
08
04
04
ENDCHAR
STARTCHAR bracketright
ENCODING 93
SWIDTH 329 0
DWIDTH 5 0
BBX 3 14 1 -2
BITMAP
E0
20
20
20
20
20
20
20
20
20
20
20
20
E0
ENDCHAR
STARTCHAR asciicircum
ENCODING 94
SWIDTH 560 0
DWIDTH 9 0
BBX 7 6 1 5
BITMAP
10
38
28
4C
44
82
ENDCHAR
STARTCHAR underscore
ENCODING 95
SWIDTH 632 0
DWIDTH 10 0
BBX 6 2 2 -3
BITMAP
FC
FC
ENDCHAR
STARTCHAR grave
ENCODING 96
SWIDTH 236 0
DWIDTH 4 0
BBX 4 3 0 9
BITMAP
80
60
10
ENDCHAR
STARTCHAR a
ENCODING 97
SWIDTH 501 0
DWIDTH 8 0
BBX 7 8 1 0
BITMAP
F8
0C
04
7C
84
84
84
FE
ENDCHAR
STARTCHAR b
ENCODING 98
SWIDTH 526 0
DWIDTH 8 0
BBX 7 11 1 0
BITMAP
80
80
80
FC
84
86
86
86
84
84
F8
ENDCHAR
STARTCHAR c
ENCODING 99
SWIDTH 436 0
DWIDTH 7 0
BBX 5 8 1 0
BITMAP
78
C0
80
80
80
80
C0
78
ENDCHAR
STARTCHAR d
ENCODING 100
SWIDTH 529 0
DWIDTH 8 0
BBX 6 11 1 0
BITMAP
04
04
04
7C
C4
84
84
84
84
C4
7C
ENDCHAR
STARTCHAR e
ENCODING 101
SWIDTH 505 0
DWIDTH 8 0
BBX 6 8 1 0
BITMAP
78
C4
84
84
FC
80
C0
7C
ENDCHAR
STARTCHAR f
ENCODING 102
SWIDTH 331 0
DWIDTH 5 0
BBX 5 12 0 0
BITMAP
18
20
20
60
F8
60
60
60
60
60
60
60
ENDCHAR
STARTCHAR g
ENCODING 103
SWIDTH 514 0
DWIDTH 8 0
BBX 7 12 1 -4
BITMAP
7E
84
84
84
F8
40
40
7C
86
82
C4
78
ENDCHAR
STARTCHAR h
ENCODING 104
SWIDTH 537 0
DWIDTH 9 0
BBX 7 11 1 0
BITMAP
80
80
80
FC
84
84
86
86
86
86
86
ENDCHAR
STARTCHAR i
ENCODING 105
SWIDTH 219 0
DWIDTH 4 0
BBX 1 11 1 0
BITMAP
80
00
00
80
80
80
80
80
80
80
80
ENDCHAR
STARTCHAR j
ENCODING 106
SWIDTH 219 0
DWIDTH 4 0
BBX 3 15 -1 -4
BITMAP
20
00
00
20
20
20
20
20
20
20
20
20
20
C0
80
ENDCHAR
STARTCHAR k
ENCODING 107
SWIDTH 479 0
DWIDTH 8 0
BBX 6 11 1 0
BITMAP
80
80
80
84
88
90
F0
90
98
88
84
ENDCHAR
STARTCHAR l
ENCODING 108
SWIDTH 231 0
DWIDTH 4 0
BBX 1 11 1 0
BITMAP
80
80
80
80
80
80
80
80
80
80
80
ENDCHAR
STARTCHAR m
ENCODING 109
SWIDTH 836 0
DWIDTH 13 0
BBX 11 8 1 0
BITMAP
FFE0
8420
8420
8420
8420
8420
8420
8420
ENDCHAR
STARTCHAR n
ENCODING 110
SWIDTH 537 0
DWIDTH 9 0
BBX 7 8 1 0
BITMAP
FC
84
84
86
86
86
86
86
ENDCHAR
STARTCHAR o
ENCODING 111
SWIDTH 528 0
DWIDTH 8 0
BBX 7 8 1 0
BITMAP
7C
C4
86
86
86
86
C4
7C
ENDCHAR
STARTCHAR p
ENCODING 112
SWIDTH 527 0
DWIDTH 8 0
BBX 7 12 1 -4
BITMAP
FC
84
86
86
86
86
84
FC
80
80
80
80
ENDCHAR
STARTCHAR q
ENCODING 113
SWIDTH 526 0
DWIDTH 8 0
BBX 6 12 1 -4
BITMAP
7C
C4
84
84
84
84
C4
7C
04
04
04
04
ENDCHAR
STARTCHAR r
ENCODING 114
SWIDTH 346 0
DWIDTH 6 0
BBX 4 8 1 0
BITMAP
B0
E0
80
80
80
80
80
80
ENDCHAR
STARTCHAR s
ENCODING 115
SWIDTH 465 0
DWIDTH 7 0
BBX 6 8 1 0
BITMAP
FC
80
80
F0
18
04
0C
F8
ENDCHAR
STARTCHAR t
ENCODING 116
SWIDTH 351 0
DWIDTH 6 0
BBX 5 10 0 0
BITMAP
20
20
F8
20
20
20
20
20
20
38
ENDCHAR
STARTCHAR u
ENCODING 117
SWIDTH 531 0
DWIDTH 9 0
BBX 6 8 1 0
BITMAP
84
84
84
84
84
84
C4
7C
ENDCHAR
STARTCHAR v
ENCODING 118
SWIDTH 481 0
DWIDTH 8 0
BBX 7 8 0 0
BITMAP
C2
42
46
64
24
24
28
18
ENDCHAR
STARTCHAR w
ENCODING 119
SWIDTH 762 0
DWIDTH 12 0
BBX 12 8 0 0
BITMAP
C630
4620
4620
6520
2960
2940
2940
38C0
ENDCHAR
STARTCHAR x
ENCODING 120
SWIDTH 452 0
DWIDTH 7 0
BBX 7 8 0 0
BITMAP
C6
64
28
18
18
28
64
C6
ENDCHAR
STARTCHAR y
ENCODING 121
SWIDTH 483 0
DWIDTH 8 0
BBX 7 12 0 -4
BITMAP
C2
42
46
64
24
24
28
18
08
18
10
10
ENDCHAR
STARTCHAR z
ENCODING 122
SWIDTH 455 0
DWIDTH 7 0
BBX 6 8 1 0
BITMAP
FC
08
18
30
20
40
80
FC
ENDCHAR
STARTCHAR braceleft
ENCODING 123
SWIDTH 352 0
DWIDTH 6 0
BBX 5 14 0 -2
BITMAP
18
30
20
20
20
20
60
E0
20
20
20
20
30
18
ENDCHAR
STARTCHAR bar
ENCODING 124
SWIDTH 230 0
DWIDTH 4 0
BBX 1 15 1 -4
BITMAP
80
80
80
80
80
80
80
80
80
80
80
80
80
80
80
ENDCHAR
STARTCHAR braceright
ENCODING 125
SWIDTH 352 0
DWIDTH 6 0
BBX 4 14 1 -2
BITMAP
C0
40
60
60
60
60
30
30
60
60
60
60
40
C0
ENDCHAR
STARTCHAR asciitilde
ENCODING 126
SWIDTH 560 0
DWIDTH 9 0
BBX 7 2 1 3
BITMAP
F2
8C
ENDCHAR
STARTCHAR uni00A0
ENCODING 160
SWIDTH 220 0
DWIDTH 4 0
BBX 1 1 0 0
BITMAP
00
ENDCHAR
STARTCHAR exclamdown
ENCODING 161
SWIDTH 228 0
DWIDTH 4 0
BBX 1 11 1 -3
BITMAP
80
80
00
00
80
80
80
80
80
80
80
ENDCHAR
STARTCHAR cent
ENCODING 162
SWIDTH 560 0
DWIDTH 9 0
BBX 5 10 2 -1
BITMAP
20
20
F8
80
80
80
80
F8
20
20
ENDCHAR
STARTCHAR sterling
ENCODING 163
SWIDTH 560 0
DWIDTH 9 0
BBX 7 11 1 0
BITMAP
1C
24
20
20
7C
20
20
20
20
20
FE
ENDCHAR
STARTCHAR currency
ENCODING 164
SWIDTH 560 0
DWIDTH 9 0
BBX 7 8 1 0
BITMAP
82
FE
44
44
44
4C
FE
82
ENDCHAR
STARTCHAR yen
ENCODING 165
SWIDTH 560 0
DWIDTH 9 0
BBX 9 11 0 0
BITMAP
C180
4100
2200
3600
1400
7F00
0800
7F00
0800
0800
0800
ENDCHAR
STARTCHAR brokenbar
ENCODING 166
SWIDTH 234 0
DWIDTH 4 0
BBX 1 15 1 -4
BITMAP
80
80
80
80
80
80
00
00
80
80
80
80
80
80
80
ENDCHAR
STARTCHAR section
ENCODING 167
SWIDTH 499 0
DWIDTH 8 0
BBX 6 12 1 -2
BITMAP
7C
80
80
E0
BC
84
84
F4
1C
04
04
F8
ENDCHAR
STARTCHAR dieresis
ENCODING 168
SWIDTH 236 0
DWIDTH 4 0
BBX 4 1 0 10
BITMAP
90
ENDCHAR
STARTCHAR copyright
ENCODING 169
SWIDTH 645 0
DWIDTH 10 0
BBX 8 8 1 3
BITMAP
3E
41
9D
A1
A1
91
49
3E
ENDCHAR
STARTCHAR ordfeminine
ENCODING 170
SWIDTH 386 0
DWIDTH 6 0
BBX 4 5 1 6
BITMAP
60
90
70
90
F0
ENDCHAR
STARTCHAR guillemotleft
ENCODING 171
SWIDTH 539 0
DWIDTH 9 0
BBX 7 6 1 1
BITMAP
22
66
88
88
64
22
ENDCHAR
STARTCHAR logicalnot
ENCODING 172
SWIDTH 560 0
DWIDTH 9 0
BBX 7 3 1 2
BITMAP
FE
02
02
ENDCHAR
STARTCHAR registered
ENCODING 174
SWIDTH 645 0
DWIDTH 10 0
BBX 8 8 1 3
BITMAP
3E
41
BD
A5
B9
A5
41
3E
ENDCHAR
STARTCHAR macron
ENCODING 175
SWIDTH 236 0
DWIDTH 4 0
BBX 4 1 0 10
BITMAP
F0
ENDCHAR
STARTCHAR degree
ENCODING 176
SWIDTH 560 0
DWIDTH 9 0
BBX 5 4 2 7
BITMAP
70
88
88
70
ENDCHAR
STARTCHAR plusminus
ENCODING 177
SWIDTH 560 0
DWIDTH 9 0
BBX 7 7 1 1
BITMAP
10
10
FE
10
10
00
FE
ENDCHAR
STARTCHAR twosuperior
ENCODING 178
SWIDTH 280 0
DWIDTH 4 0
BBX 4 5 0 8
BITMAP
60
10
30
60
F0
ENDCHAR
STARTCHAR threesuperior
ENCODING 179
SWIDTH 280 0
DWIDTH 4 0
BBX 4 6 0 7
BITMAP
60
10
70
10
90
60
ENDCHAR
STARTCHAR acute
ENCODING 180
SWIDTH 268 0
DWIDTH 4 0
BBX 4 3 0 9
BITMAP
10
60
80
ENDCHAR
STARTCHAR mu
ENCODING 181
SWIDTH 560 0
DWIDTH 9 0
BBX 7 12 1 -4
BITMAP
C6
C6
C6
C6
C6
C6
C6
FE
C0
C0
C0
C0
ENDCHAR
STARTCHAR paragraph
ENCODING 182
SWIDTH 593 0
DWIDTH 9 0
BBX 8 11 1 0
BITMAP
7F
F2
F2
F2
F2
72
12
12
12
12
12
ENDCHAR
STARTCHAR periodcentered
ENCODING 183
SWIDTH 217 0
DWIDTH 3 0
BBX 1 1 1 4
BITMAP
80
ENDCHAR
STARTCHAR cedilla
ENCODING 184
SWIDTH 263 0
DWIDTH 4 0
BBX 3 3 1 -3
BITMAP
80
40
E0
ENDCHAR
STARTCHAR onesuperior
ENCODING 185
SWIDTH 280 0
DWIDTH 4 0
BBX 2 5 1 8
BITMAP
40
C0
40
40
40
ENDCHAR
STARTCHAR ordmasculine
ENCODING 186
SWIDTH 380 0
DWIDTH 6 0
BBX 4 5 1 6
BITMAP
60
F0
90
90
F0
ENDCHAR
STARTCHAR guillemotright
ENCODING 187
SWIDTH 539 0
DWIDTH 9 0
BBX 7 6 1 1
BITMAP
88
CC
66
66
CC
88
ENDCHAR
STARTCHAR onequarter
ENCODING 188
SWIDTH 534 0
DWIDTH 9 0
BBX 7 15 1 -2
BITMAP
40
C0
44
44
48
08
10
10
20
44
48
8A
9A
1E
02
ENDCHAR
STARTCHAR onehalf
ENCODING 189
SWIDTH 529 0
DWIDTH 8 0
BBX 7 15 1 -2
BITMAP
40
C0
44
44
48
08
10
10
20
4C
56
82
84
08
1E
ENDCHAR
STARTCHAR threequarters
ENCODING 190
SWIDTH 550 0
DWIDTH 9 0
BBX 7 15 1 -2
BITMAP
E0
20
E2
24
A4
48
08
10
20
20
4C
8A
8A
0E
02
ENDCHAR
STARTCHAR questiondown
ENCODING 191
SWIDTH 441 0
DWIDTH 7 0
BBX 6 11 1 -3
BITMAP
30
30
00
10
30
60
C0
80
80
80
FC
ENDCHAR
STARTCHAR Agrave
ENCODING 192
SWIDTH 596 0
DWIDTH 10 0
BBX 9 15 0 0
BITMAP
1000
1C00
0200
0000
1C00
1600
1200
3200
2200
2300
2100
7F00
4100
4080
C080
ENDCHAR
STARTCHAR Aacute
ENCODING 193
SWIDTH 596 0
DWIDTH 10 0
BBX 9 15 0 0
BITMAP
0200
1C00
1000
0000
1C00
1600
1200
3200
2200
2300
2100
7F00
4100
4080
C080
ENDCHAR
STARTCHAR Acircumflex
ENCODING 194
SWIDTH 596 0
DWIDTH 10 0
BBX 9 15 0 0
BITMAP
0C00
1600
2000
0000
1C00
1600
1200
3200
2200
2300
2100
7F00
4100
4080
C080
ENDCHAR
STARTCHAR Atilde
ENCODING 195
SWIDTH 596 0
DWIDTH 10 0
BBX 9 15 0 0
BITMAP
1100
2E00
0000
0000
1C00
1600
1200
3200
2200
2300
2100
7F00
4100
4080
C080
ENDCHAR
STARTCHAR Adieresis
ENCODING 196
SWIDTH 596 0
DWIDTH 10 0
BBX 9 14 0 0
BITMAP
1200
0000
0000
1C00
1600
1200
3200
2200
2300
2100
7F00
4100
4080
C080
ENDCHAR
STARTCHAR Aring
ENCODING 197
SWIDTH 596 0
DWIDTH 10 0
BBX 9 14 0 0
BITMAP
0800
1600
1200
1C00
1600
1200
3200
2200
2300
2100
7F00
4100
4080
C080
ENDCHAR
STARTCHAR AE
ENCODING 198
SWIDTH 876 0
DWIDTH 14 0
BBX 13 11 0 0
BITMAP
0FF8
1900
1100
1100
3100
21F0
2100
7F00
4100
4100
C1F8
ENDCHAR
STARTCHAR Ccedilla
ENCODING 199
SWIDTH 544 0
DWIDTH 9 0
BBX 7 14 1 -3
BITMAP
7E
40
C0
80
80
80
80
80
C0
40
7E
10
0C
1C
ENDCHAR
STARTCHAR Egrave
ENCODING 200
SWIDTH 553 0
DWIDTH 9 0
BBX 7 15 1 0
BITMAP
20
18
04
00
FE
C0
C0
C0
C0
FC
C0
C0
C0
C0
FE
ENDCHAR
STARTCHAR Eacute
ENCODING 201
SWIDTH 553 0
DWIDTH 9 0
BBX 7 15 1 0
BITMAP
0C
38
20
00
FE
C0
C0
C0
C0
FC
C0
C0
C0
C0
FE
ENDCHAR
STARTCHAR Ecircumflex
ENCODING 202
SWIDTH 553 0
DWIDTH 9 0
BBX 7 15 1 0
BITMAP
18
2C
40
00
FE
C0
C0
C0
C0
FC
C0
C0
C0
C0
FE
ENDCHAR
STARTCHAR Edieresis
ENCODING 203
SWIDTH 553 0
DWIDTH 9 0
BBX 7 14 1 0
BITMAP
24
00
00
FE
C0
C0
C0
C0
FC
C0
C0
C0
C0
FE
ENDCHAR
STARTCHAR Igrave
ENCODING 204
SWIDTH 246 0
DWIDTH 4 0
BBX 4 15 0 0
BITMAP
80
60
10
00
60
60
60
60
60
60
60
60
60
60
60
ENDCHAR
STARTCHAR Iacute
ENCODING 205
SWIDTH 246 0
DWIDTH 4 0
BBX 4 15 0 0
BITMAP
10
60
80
00
60
60
60
60
60
60
60
60
60
60
60
ENDCHAR
STARTCHAR Icircumflex
ENCODING 206
SWIDTH 246 0
DWIDTH 4 0
BBX 6 15 -1 0
BITMAP
30
58
84
00
30
30
30
30
30
30
30
30
30
30
30
ENDCHAR
STARTCHAR Idieresis
ENCODING 207
SWIDTH 246 0
DWIDTH 4 0
BBX 4 14 0 0
BITMAP
90
00
00
60
60
60
60
60
60
60
60
60
60
60
ENDCHAR
STARTCHAR Eth
ENCODING 208
SWIDTH 647 0
DWIDTH 10 0
BBX 9 11 0 0
BITMAP
7F00
6180
6080
6080
6080
F880
6080
6080
6080
6180
7E00
ENDCHAR
STARTCHAR Ntilde
ENCODING 209
SWIDTH 676 0
DWIDTH 11 0
BBX 8 15 1 0
BITMAP
32
2E
00
00
E1
E1
D1
D1
D9
C9
C9
C5
C5
C3
C3
ENDCHAR
STARTCHAR Ograve
ENCODING 210
SWIDTH 660 0
DWIDTH 11 0
BBX 9 15 1 0
BITMAP
2000
1C00
0400
0000
3E00
4300
C100
8180
8180
8180
8180
8180
C100
4300
3E00
ENDCHAR
STARTCHAR Oacute
ENCODING 211
SWIDTH 660 0
DWIDTH 11 0
BBX 9 15 1 0
BITMAP
0400
1800
2000
0000
3E00
4300
C100
8180
8180
8180
8180
8180
C100
4300
3E00
ENDCHAR
STARTCHAR Ocircumflex
ENCODING 212
SWIDTH 660 0
DWIDTH 11 0
BBX 9 15 1 0
BITMAP
1800
3400
0200
0000
3E00
4300
C100
8180
8180
8180
8180
8180
C100
4300
3E00
ENDCHAR
STARTCHAR Otilde
ENCODING 213
SWIDTH 660 0
DWIDTH 11 0
BBX 9 15 1 0
BITMAP
3200
2E00
0000
0000
3E00
4300
C100
8180
8180
8180
8180
8180
C100
4300
3E00
ENDCHAR
STARTCHAR Odieresis
ENCODING 214
SWIDTH 660 0
DWIDTH 11 0
BBX 9 14 1 0
BITMAP
2400
0000
0000
3E00
4300
C100
8180
8180
8180
8180
8180
C100
4300
3E00
ENDCHAR
STARTCHAR multiply
ENCODING 215
SWIDTH 560 0
DWIDTH 9 0
BBX 7 6 1 1
BITMAP
C6
6C
38
38
6C
C6
ENDCHAR
STARTCHAR Oslash
ENCODING 216
SWIDTH 660 0
DWIDTH 11 0
BBX 9 15 1 -2
BITMAP
0100
0100
3E00
4300
C500
8580
8980
8980
9180
9180
E100
6300
7E00
4000
4000
ENDCHAR
STARTCHAR Ugrave
ENCODING 217
SWIDTH 644 0
DWIDTH 10 0
BBX 8 15 1 0
BITMAP
20
1C
04
00
C1
C1
C1
C1
C1
C1
C1
C1
C1
43
7E
ENDCHAR
STARTCHAR Uacute
ENCODING 218
SWIDTH 644 0
DWIDTH 10 0
BBX 8 15 1 0
BITMAP
04
18
20
00
C1
C1
C1
C1
C1
C1
C1
C1
C1
43
7E
ENDCHAR
STARTCHAR Ucircumflex
ENCODING 219
SWIDTH 644 0
DWIDTH 10 0
BBX 8 15 1 0
BITMAP
18
34
42
00
C1
C1
C1
C1
C1
C1
C1
C1
C1
43
7E
ENDCHAR
STARTCHAR Udieresis
ENCODING 220
SWIDTH 644 0
DWIDTH 10 0
BBX 8 14 1 0
BITMAP
24
00
00
C1
C1
C1
C1
C1
C1
C1
C1
C1
43
7E
ENDCHAR
STARTCHAR Yacute
ENCODING 221
SWIDTH 538 0
DWIDTH 9 0
BBX 8 15 0 0
BITMAP
04
1E
10
00
C1
43
22
24
14
18
08
08
08
08
08
ENDCHAR
STARTCHAR Thorn
ENCODING 222
SWIDTH 599 0
DWIDTH 10 0
BBX 8 11 1 0
BITMAP
C0
C0
FE
C3
C1
C1
C1
C2
FE
C0
C0
ENDCHAR
STARTCHAR germandbls
ENCODING 223
SWIDTH 574 0
DWIDTH 9 0
BBX 8 12 1 0
BITMAP
38
4C
84
84
9C
90
98
86
83
83
82
BE
ENDCHAR
STARTCHAR agrave
ENCODING 224
SWIDTH 501 0
DWIDTH 8 0
BBX 7 12 1 0
BITMAP
40
30
08
00
F8
0C
04
7C
84
84
84
FE
ENDCHAR
STARTCHAR aacute
ENCODING 225
SWIDTH 501 0
DWIDTH 8 0
BBX 7 12 1 0
BITMAP
08
70
40
00
F8
0C
04
7C
84
84
84
FE
ENDCHAR
STARTCHAR acircumflex
ENCODING 226
SWIDTH 501 0
DWIDTH 8 0
BBX 7 12 1 0
BITMAP
20
70
48
00
F8
0C
04
7C
84
84
84
FE
ENDCHAR
STARTCHAR atilde
ENCODING 227
SWIDTH 501 0
DWIDTH 8 0
BBX 7 12 1 0
BITMAP
40
B8
00
00
F8
0C
04
7C
84
84
84
FE
ENDCHAR
STARTCHAR adieresis
ENCODING 228
SWIDTH 501 0
DWIDTH 8 0
BBX 7 11 1 0
BITMAP
48
00
00
F8
0C
04
7C
84
84
84
FE
ENDCHAR
STARTCHAR aring
ENCODING 229
SWIDTH 501 0
DWIDTH 8 0
BBX 7 12 1 0
BITMAP
30
48
38
00
F8
0C
04
7C
84
84
84
FE
ENDCHAR
STARTCHAR ae
ENCODING 230
SWIDTH 804 0
DWIDTH 13 0
BBX 11 8 1 0
BITMAP
FBC0
0C60
0420
7C20
87E0
8400
8400
FBE0
ENDCHAR
STARTCHAR ccedilla
ENCODING 231
SWIDTH 436 0
DWIDTH 7 0
BBX 5 11 1 -3
BITMAP
78
C0
80
80
80
80
C0
78
20
18
38
ENDCHAR
STARTCHAR egrave
ENCODING 232
SWIDTH 505 0
DWIDTH 8 0
BBX 6 12 1 0
BITMAP
40
30
08
00
78
C4
84
84
FC
80
C0
7C
ENDCHAR
STARTCHAR eacute
ENCODING 233
SWIDTH 505 0
DWIDTH 8 0
BBX 6 12 1 0
BITMAP
08
30
40
00
78
C4
84
84
FC
80
C0
7C
ENDCHAR
STARTCHAR ecircumflex
ENCODING 234
SWIDTH 505 0
DWIDTH 8 0
BBX 6 12 1 0
BITMAP
10
38
4C
00
78
C4
84
84
FC
80
C0
7C
ENDCHAR
STARTCHAR edieresis
ENCODING 235
SWIDTH 505 0
DWIDTH 8 0
BBX 6 11 1 0
BITMAP
48
00
00
78
C4
84
84
FC
80
C0
7C
ENDCHAR
STARTCHAR igrave
ENCODING 236
SWIDTH 219 0
DWIDTH 4 0
BBX 4 12 -1 0
BITMAP
80
60
10
00
20
20
20
20
20
20
20
20
ENDCHAR
STARTCHAR iacute
ENCODING 237
SWIDTH 219 0
DWIDTH 4 0
BBX 3 12 1 0
BITMAP
20
E0
80
00
80
80
80
80
80
80
80
80
ENDCHAR
STARTCHAR icircumflex
ENCODING 238
SWIDTH 219 0
DWIDTH 4 0
BBX 5 12 -1 0
BITMAP
20
50
C8
00
20
20
20
20
20
20
20
20
ENDCHAR
STARTCHAR idieresis
ENCODING 239
SWIDTH 219 0
DWIDTH 4 0
BBX 5 11 -1 0
BITMAP
C8
00
00
20
20
20
20
20
20
20
20
ENDCHAR
STARTCHAR eth
ENCODING 240
SWIDTH 548 0
DWIDTH 9 0
BBX 7 12 1 0
BITMAP
44
78
28
44
06
7A
C6
82
82
86
C4
78
ENDCHAR
STARTCHAR ntilde
ENCODING 241
SWIDTH 537 0
DWIDTH 9 0
BBX 7 12 1 0
BITMAP
20
5C
00
00
FC
84
84
86
86
86
86
86
ENDCHAR
STARTCHAR ograve
ENCODING 242
SWIDTH 528 0
DWIDTH 8 0
BBX 7 12 1 0
BITMAP
40
38
08
00
7C
C4
86
86
86
86
C4
7C
ENDCHAR
STARTCHAR oacute
ENCODING 243
SWIDTH 528 0
DWIDTH 8 0
BBX 7 12 1 0
BITMAP
08
38
40
00
7C
C4
86
86
86
86
C4
7C
ENDCHAR
STARTCHAR ocircumflex
ENCODING 244
SWIDTH 528 0
DWIDTH 8 0
BBX 7 12 1 0
BITMAP
10
28
4C
00
7C
C4
86
86
86
86
C4
7C
ENDCHAR
STARTCHAR otilde
ENCODING 245
SWIDTH 528 0
DWIDTH 8 0
BBX 7 12 1 0
BITMAP
20
7C
00
00
7C
C4
86
86
86
86
C4
7C
ENDCHAR
STARTCHAR odieresis
ENCODING 246
SWIDTH 528 0
DWIDTH 8 0
BBX 7 11 1 0
BITMAP
48
00
00
7C
C4
86
86
86
86
C4
7C
ENDCHAR
STARTCHAR divide
ENCODING 247
SWIDTH 560 0
DWIDTH 9 0
BBX 5 6 2 0
BITMAP
F8
F8
00
00
20
20
ENDCHAR
STARTCHAR oslash
ENCODING 248
SWIDTH 528 0
DWIDTH 8 0
BBX 7 12 1 -2
BITMAP
04
04
7C
CC
96
96
96
A6
A4
7C
40
80
ENDCHAR
STARTCHAR ugrave
ENCODING 249
SWIDTH 531 0
DWIDTH 9 0
BBX 6 12 1 0
BITMAP
40
30
08
00
84
84
84
84
84
84
C4
7C
ENDCHAR
STARTCHAR uacute
ENCODING 250
SWIDTH 531 0
DWIDTH 9 0
BBX 6 12 1 0
BITMAP
08
38
40
00
84
84
84
84
84
84
C4
7C
ENDCHAR
STARTCHAR ucircumflex
ENCODING 251
SWIDTH 531 0
DWIDTH 9 0
BBX 6 12 1 0
BITMAP
30
38
48
00
84
84
84
84
84
84
C4
7C
ENDCHAR
STARTCHAR udieresis
ENCODING 252
SWIDTH 531 0
DWIDTH 9 0
BBX 6 11 1 0
BITMAP
48
00
00
84
84
84
84
84
84
C4
7C
ENDCHAR
STARTCHAR yacute
ENCODING 253
SWIDTH 483 0
DWIDTH 8 0
BBX 7 16 0 -4
BITMAP
04
1C
20
00
C2
42
46
64
24
24
28
18
08
18
10
10
ENDCHAR
STARTCHAR thorn
ENCODING 254
SWIDTH 527 0
DWIDTH 8 0
BBX 7 15 1 -4
BITMAP
80
80
80
FC
84
86
86
86
84
84
FC
80
80
80
80
ENDCHAR
STARTCHAR ydieresis
ENCODING 255
SWIDTH 483 0
DWIDTH 8 0
BBX 7 15 0 -4
BITMAP
24
00
00
C2
42
46
64
24
24
28
18
08
18
10
10
ENDCHAR
STARTCHAR Amacron
ENCODING 256
SWIDTH 596 0
DWIDTH 10 0
BBX 9 14 0 0
BITMAP
3E00
0000
0000
1C00
1600
1200
3200
2200
2300
2100
7F00
4100
4080
C080
ENDCHAR
STARTCHAR amacron
ENCODING 257
SWIDTH 501 0
DWIDTH 8 0
BBX 7 11 1 0
BITMAP
78
00
00
F8
0C
04
7C
84
84
84
FE
ENDCHAR
STARTCHAR Abreve
ENCODING 258
SWIDTH 596 0
DWIDTH 10 0
BBX 9 15 0 0
BITMAP
2200
1E00
0000
0000
1C00
1600
1200
3200
2200
2300
2100
7F00
4100
4080
C080
ENDCHAR
STARTCHAR abreve
ENCODING 259
SWIDTH 503 0
DWIDTH 8 0
BBX 7 12 1 0
BITMAP
CC
78
30
00
F8
0C
04
7C
84
84
84
FE
ENDCHAR
STARTCHAR Aogonek
ENCODING 260
SWIDTH 596 0
DWIDTH 10 0
BBX 9 14 0 -3
BITMAP
1C00
1600
1200
3200
2200
2300
2100
7F00
4100
4080
C080
0180
0100
0180
ENDCHAR
STARTCHAR aogonek
ENCODING 261
SWIDTH 500 0
DWIDTH 8 0
BBX 7 11 1 -3
BITMAP
F8
0C
04
7C
84
84
84
FE
04
08
0E
ENDCHAR
STARTCHAR Cacute
ENCODING 262
SWIDTH 544 0
DWIDTH 9 0
BBX 7 15 1 0
BITMAP
04
38
20
00
7E
40
C0
80
80
80
80
80
C0
40
7E
ENDCHAR
STARTCHAR cacute
ENCODING 263
SWIDTH 436 0
DWIDTH 7 0
BBX 5 12 1 0
BITMAP
08
30
40
00
78
C0
80
80
80
80
C0
78
ENDCHAR
STARTCHAR Ccircumflex
ENCODING 264
SWIDTH 544 0
DWIDTH 9 0
BBX 7 15 1 0
BITMAP
18
3C
42
00
7E
40
C0
80
80
80
80
80
C0
40
7E
ENDCHAR
STARTCHAR ccircumflex
ENCODING 265
SWIDTH 436 0
DWIDTH 7 0
BBX 5 12 1 0
BITMAP
20
50
C8
00
78
C0
80
80
80
80
C0
78
ENDCHAR
STARTCHAR Cdotaccent
ENCODING 266
SWIDTH 544 0
DWIDTH 9 0
BBX 7 14 1 0
BITMAP
10
00
00
7E
40
C0
80
80
80
80
80
C0
40
7E
ENDCHAR
STARTCHAR cdotaccent
ENCODING 267
SWIDTH 436 0
DWIDTH 7 0
BBX 5 11 1 0
BITMAP
30
00
00
78
C0
80
80
80
80
C0
78
ENDCHAR
STARTCHAR Ccaron
ENCODING 268
SWIDTH 544 0
DWIDTH 9 0
BBX 7 15 1 0
BITMAP
66
38
00
00
7E
40
C0
80
80
80
80
80
C0
40
7E
ENDCHAR
STARTCHAR ccaron
ENCODING 269
SWIDTH 436 0
DWIDTH 7 0
BBX 5 12 1 0
BITMAP
C8
30
20
00
78
C0
80
80
80
80
C0
78
ENDCHAR
STARTCHAR Dcaron
ENCODING 270
SWIDTH 645 0
DWIDTH 10 0
BBX 8 15 1 0
BITMAP
64
38
00
00
FE
C3
C1
C1
C1
C1
C1
C1
C1
C2
FC
ENDCHAR
STARTCHAR dcaron
ENCODING 271
SWIDTH 575 0
DWIDTH 9 0
BBX 9 11 1 0
BITMAP
0480
0480
0580
7C00
C400
8400
8400
8400
8400
C400
7C00
ENDCHAR
STARTCHAR Dcroat
ENCODING 272
SWIDTH 647 0
DWIDTH 10 0
BBX 9 11 0 0
BITMAP
7F00
6180
6080
6080
6080
F880
6080
6080
6080
6180
7E00
ENDCHAR
STARTCHAR dcroat
ENCODING 273
SWIDTH 529 0
DWIDTH 8 0
BBX 7 11 1 0
BITMAP
3E
04
04
7C
C4
84
84
84
84
C4
7C
ENDCHAR
STARTCHAR Emacron
ENCODING 274
SWIDTH 553 0
DWIDTH 9 0
BBX 7 14 1 0
BITMAP
7C
00
00
FE
C0
C0
C0
C0
FC
C0
C0
C0
C0
FE
ENDCHAR
STARTCHAR emacron
ENCODING 275
SWIDTH 505 0
DWIDTH 8 0
BBX 6 11 1 0
BITMAP
78
00
00
78
C4
84
84
FC
80
C0
7C
ENDCHAR
STARTCHAR Ebreve
ENCODING 276
SWIDTH 553 0
DWIDTH 9 0
BBX 7 15 1 0
BITMAP
44
3C
00
00
FE
C0
C0
C0
C0
FC
C0
C0
C0
C0
FE
ENDCHAR
STARTCHAR ebreve
ENCODING 277
SWIDTH 505 0
DWIDTH 8 0
BBX 6 12 1 0
BITMAP
48
48
30
00
78
C4
84
84
FC
80
C0
7C
ENDCHAR
STARTCHAR Edotaccent
ENCODING 278
SWIDTH 553 0
DWIDTH 9 0
BBX 7 14 1 0
BITMAP
10
00
00
FE
C0
C0
C0
C0
FC
C0
C0
C0
C0
FE
ENDCHAR
STARTCHAR edotaccent
ENCODING 279
SWIDTH 505 0
DWIDTH 8 0
BBX 6 11 1 0
BITMAP
30
00
00
78
C4
84
84
FC
80
C0
7C
ENDCHAR
STARTCHAR Eogonek
ENCODING 280
SWIDTH 553 0
DWIDTH 9 0
BBX 7 14 1 -3
BITMAP
FE
C0
C0
C0
C0
FC
C0
C0
C0
C0
FE
04
0C
0E
ENDCHAR
STARTCHAR eogonek
ENCODING 281
SWIDTH 506 0
DWIDTH 8 0
BBX 6 11 1 -3
BITMAP
78
C4
84
84
FC
80
C0
7C
08
10
1C
ENDCHAR
STARTCHAR Ecaron
ENCODING 282
SWIDTH 553 0
DWIDTH 9 0
BBX 7 15 1 0
BITMAP
64
38
00
00
FE
C0
C0
C0
C0
FC
C0
C0
C0
C0
FE
ENDCHAR
STARTCHAR ecaron
ENCODING 283
SWIDTH 505 0
DWIDTH 8 0
BBX 6 12 1 0
BITMAP
48
30
10
00
78
C4
84
84
FC
80
C0
7C
ENDCHAR
STARTCHAR Gcircumflex
ENCODING 284
SWIDTH 616 0
DWIDTH 10 0
BBX 8 15 1 0
BITMAP
18
34
42
00
7F
40
C0
80
80
87
81
81
C1
41
3F
ENDCHAR
STARTCHAR gcircumflex
ENCODING 285
SWIDTH 514 0
DWIDTH 8 0
BBX 7 16 1 -4
BITMAP
10
28
4C
00
7E
84
84
84
F8
40
40
7C
86
82
C4
78
ENDCHAR
STARTCHAR Gbreve
ENCODING 286
SWIDTH 616 0
DWIDTH 10 0
BBX 8 15 1 0
BITMAP
22
3C
00
00
7F
40
C0
80
80
87
81
81
C1
41
3F
ENDCHAR
STARTCHAR gbreve
ENCODING 287
SWIDTH 514 0
DWIDTH 8 0
BBX 7 16 1 -4
BITMAP
44
48
30
00
7E
84
84
84
F8
40
40
7C
86
82
C4
78
ENDCHAR
STARTCHAR Gdotaccent
ENCODING 288
SWIDTH 616 0
DWIDTH 10 0
BBX 8 14 1 0
BITMAP
18
00
00
7F
40
C0
80
80
87
81
81
C1
41
3F
ENDCHAR
STARTCHAR gdotaccent
ENCODING 289
SWIDTH 514 0
DWIDTH 8 0
BBX 7 15 1 -4
BITMAP
10
00
00
7E
84
84
84
F8
40
40
7C
86
82
C4
78
ENDCHAR
STARTCHAR Gcommaaccent
ENCODING 290
SWIDTH 616 0
DWIDTH 10 0
BBX 8 16 1 -5
BITMAP
7F
40
C0
80
80
87
81
81
C1
41
3F
00
08
08
10
10
ENDCHAR
STARTCHAR gcommaaccent
ENCODING 291
SWIDTH 514 0
DWIDTH 8 0
BBX 7 17 1 -4
BITMAP
10
10
20
20
00
7E
84
84
84
F8
40
40
7C
86
82
C4
78
ENDCHAR
STARTCHAR Hcircumflex
ENCODING 292
SWIDTH 675 0
DWIDTH 11 0
BBX 8 15 1 0
BITMAP
08
34
02
00
C1
C1
C1
C1
C1
FF
C1
C1
C1
C1
C1
ENDCHAR
STARTCHAR hcircumflex
ENCODING 293
SWIDTH 537 0
DWIDTH 9 0
BBX 7 15 1 0
BITMAP
10
28
4C
00
80
80
80
FC
84
84
86
86
86
86
86
ENDCHAR
STARTCHAR Hbar
ENCODING 294
SWIDTH 686 0
DWIDTH 11 0
BBX 11 11 0 0
BITMAP
60C0
60C0
FFE0
60C0
60C0
7FC0
60C0
60C0
60C0
60C0
60C0
ENDCHAR
STARTCHAR hbar
ENCODING 295
SWIDTH 537 0
DWIDTH 9 0
BBX 8 11 0 0
BITMAP
40
F8
40
7E
42
42
43
43
43
43
43
ENDCHAR
STARTCHAR Itilde
ENCODING 296
SWIDTH 246 0
DWIDTH 4 0
BBX 6 15 -1 0
BITMAP
64
B8
00
00
30
30
30
30
30
30
30
30
30
30
30
ENDCHAR
STARTCHAR itilde
ENCODING 297
SWIDTH 219 0
DWIDTH 4 0
BBX 5 12 -1 0
BITMAP
40
B8
00
00
20
20
20
20
20
20
20
20
ENDCHAR
STARTCHAR Imacron
ENCODING 298
SWIDTH 246 0
DWIDTH 4 0
BBX 5 14 0 0
BITMAP
F8
00
00
60
60
60
60
60
60
60
60
60
60
60
ENDCHAR
STARTCHAR imacron
ENCODING 299
SWIDTH 219 0
DWIDTH 4 0
BBX 4 11 0 0
BITMAP
F0
00
00
40
40
40
40
40
40
40
40
ENDCHAR
STARTCHAR Ibreve
ENCODING 300
SWIDTH 246 0
DWIDTH 4 0
BBX 5 15 0 0
BITMAP
98
F0
00
00
60
60
60
60
60
60
60
60
60
60
60
ENDCHAR
STARTCHAR ibreve
ENCODING 301
SWIDTH 219 0
DWIDTH 4 0
BBX 5 12 -1 0
BITMAP
88
48
30
00
20
20
20
20
20
20
20
20
ENDCHAR
STARTCHAR Iogonek
ENCODING 302
SWIDTH 246 0
DWIDTH 4 0
BBX 3 14 0 -3
BITMAP
60
60
60
60
60
60
60
60
60
60
60
40
80
E0
ENDCHAR
STARTCHAR iogonek
ENCODING 303
SWIDTH 219 0
DWIDTH 4 0
BBX 3 14 0 -3
BITMAP
40
00
00
40
40
40
40
40
40
40
40
40
80
E0
ENDCHAR
STARTCHAR Idotaccent
ENCODING 304
SWIDTH 246 0
DWIDTH 4 0
BBX 2 14 1 0
BITMAP
C0
00
00
C0
C0
C0
C0
C0
C0
C0
C0
C0
C0
C0
ENDCHAR
STARTCHAR dotlessi
ENCODING 305
SWIDTH 219 0
DWIDTH 4 0
BBX 1 8 1 0
BITMAP
80
80
80
80
80
80
80
80
ENDCHAR
STARTCHAR Jcircumflex
ENCODING 308
SWIDTH 289 0
DWIDTH 5 0
BBX 5 16 0 -1
BITMAP
20
58
80
00
20
20
20
20
20
20
20
20
20
20
20
E0
ENDCHAR
STARTCHAR jcircumflex
ENCODING 309
SWIDTH 219 0
DWIDTH 4 0
BBX 5 16 -1 -4
BITMAP
20
50
C8
00
20
20
20
20
20
20
20
20
20
20
C0
80
ENDCHAR
STARTCHAR Kcommaaccent
ENCODING 310
SWIDTH 568 0
DWIDTH 9 0
BBX 8 16 1 -5
BITMAP
C3
C6
C4
CC
C8
F8
C8
CC
C4
C6
C3
00
10
10
10
10
ENDCHAR
STARTCHAR kcommaaccent
ENCODING 311
SWIDTH 479 0
DWIDTH 8 0
BBX 6 16 1 -5
BITMAP
80
80
80
84
88
90
F0
90
98
88
84
00
40
40
40
40
ENDCHAR
STARTCHAR Lacute
ENCODING 313
SWIDTH 479 0
DWIDTH 8 0
BBX 6 15 1 0
BITMAP
08
30
40
00
C0
C0
C0
C0
C0
C0
C0
C0
C0
C0
FC
ENDCHAR
STARTCHAR lacute
ENCODING 314
SWIDTH 231 0
DWIDTH 4 0
BBX 4 15 1 0
BITMAP
30
C0
00
00
80
80
80
80
80
80
80
80
80
80
80
ENDCHAR
STARTCHAR Lcommaaccent
ENCODING 315
SWIDTH 479 0
DWIDTH 8 0
BBX 6 16 1 -5
BITMAP
C0
C0
C0
C0
C0
C0
C0
C0
C0
C0
FC
00
10
10
20
20
ENDCHAR
STARTCHAR lcommaaccent
ENCODING 316
SWIDTH 231 0
DWIDTH 4 0
BBX 1 16 1 -5
BITMAP
80
80
80
80
80
80
80
80
80
80
80
00
80
80
80
80
ENDCHAR
STARTCHAR Lcaron
ENCODING 317
SWIDTH 494 0
DWIDTH 8 0
BBX 6 11 1 0
BITMAP
C4
C4
C4
C4
C0
C0
C0
C0
C0
C0
FC
ENDCHAR
STARTCHAR lcaron
ENCODING 318
SWIDTH 270 0
DWIDTH 4 0
BBX 4 11 1 0
BITMAP
90
90
90
A0
80
80
80
80
80
80
80
ENDCHAR
STARTCHAR Lslash
ENCODING 321
SWIDTH 483 0
DWIDTH 8 0
BBX 8 11 0 0
BITMAP
60
60
60
6C
70
60
E0
60
60
60
7F
ENDCHAR
STARTCHAR lslash
ENCODING 322
SWIDTH 310 0
DWIDTH 5 0
BBX 5 11 0 0
BITMAP
20
20
20
20
38
20
E0
20
20
20
20
ENDCHAR
STARTCHAR Nacute
ENCODING 323
SWIDTH 676 0
DWIDTH 11 0
BBX 8 15 1 0
BITMAP
04
1C
20
00
E1
E1
D1
D1
D9
C9
C9
C5
C5
C3
C3
ENDCHAR
STARTCHAR nacute
ENCODING 324
SWIDTH 537 0
DWIDTH 9 0
BBX 7 12 1 0
BITMAP
08
38
40
00
FC
84
84
86
86
86
86
86
ENDCHAR
STARTCHAR Ncommaaccent
ENCODING 325
SWIDTH 676 0
DWIDTH 11 0
BBX 8 16 1 -5
BITMAP
E1
E1
D1
D1
D9
C9
C9
C5
C5
C3
C3
00
08
08
08
08
ENDCHAR
STARTCHAR ncommaaccent
ENCODING 326
SWIDTH 537 0
DWIDTH 9 0
BBX 7 13 1 -5
BITMAP
FC
84
84
86
86
86
86
86
00
20
60
40
40
ENDCHAR
STARTCHAR Ncaron
ENCODING 327
SWIDTH 676 0
DWIDTH 11 0
BBX 8 15 1 0
BITMAP
26
1C
00
00
E1
E1
D1
D1
D9
C9
C9
C5
C5
C3
C3
ENDCHAR
STARTCHAR ncaron
ENCODING 328
SWIDTH 537 0
DWIDTH 9 0
BBX 7 12 1 0
BITMAP
4C
38
10
00
FC
84
84
86
86
86
86
86
ENDCHAR
STARTCHAR Eng
ENCODING 330
SWIDTH 676 0
DWIDTH 11 0
BBX 8 14 1 -3
BITMAP
E1
E1
D1
D1
D9
C9
C9
C5
C5
C3
C3
01
01
07
ENDCHAR
STARTCHAR eng
ENCODING 331
SWIDTH 538 0
DWIDTH 9 0
BBX 7 12 1 -4
BITMAP
FC
84
84
86
86
86
86
86
06
04
1C
08
ENDCHAR
STARTCHAR Omacron
ENCODING 332
SWIDTH 660 0
DWIDTH 11 0
BBX 9 14 1 0
BITMAP
3E00
0000
0000
3E00
4300
C100
8180
8180
8180
8180
8180
C100
4300
3E00
ENDCHAR
STARTCHAR omacron
ENCODING 333
SWIDTH 528 0
DWIDTH 8 0
BBX 7 11 1 0
BITMAP
78
00
00
7C
C4
86
86
86
86
C4
7C
ENDCHAR
STARTCHAR Obreve
ENCODING 334
SWIDTH 660 0
DWIDTH 11 0
BBX 9 15 1 0
BITMAP
2200
3C00
0000
0000
3E00
4300
C100
8180
8180
8180
8180
8180
C100
4300
3E00
ENDCHAR
STARTCHAR obreve
ENCODING 335
SWIDTH 528 0
DWIDTH 8 0
BBX 7 12 1 0
BITMAP
44
48
30
00
7C
C4
86
86
86
86
C4
7C
ENDCHAR
STARTCHAR Ohungarumlaut
ENCODING 336
SWIDTH 660 0
DWIDTH 11 0
BBX 9 15 1 0
BITMAP
1B00
3200
6400
0000
3E00
4300
C100
8180
8180
8180
8180
8180
C100
4300
3E00
ENDCHAR
STARTCHAR ohungarumlaut
ENCODING 337
SWIDTH 528 0
DWIDTH 8 0
BBX 7 12 1 0
BITMAP
36
6C
C8
00
7C
C4
86
86
86
86
C4
7C
ENDCHAR
STARTCHAR OE
ENCODING 338
SWIDTH 925 0
DWIDTH 15 0
BBX 13 11 1 0
BITMAP
7FF8
4300
C300
8300
8300
83F0
8300
8300
C300
4300
7FF8
ENDCHAR
STARTCHAR oe
ENCODING 339
SWIDTH 857 0
DWIDTH 14 0
BBX 12 8 1 0
BITMAP
79E0
C630
8610
8610
87F0
8600
C600
79F0
ENDCHAR
STARTCHAR Racute
ENCODING 340
SWIDTH 616 0
DWIDTH 10 0
BBX 8 15 1 0
BITMAP
04
38
20
00
FE
C3
C1
C1
C1
C2
FC
C4
C2
C2
C3
ENDCHAR
STARTCHAR racute
ENCODING 341
SWIDTH 346 0
DWIDTH 6 0
BBX 4 12 1 0
BITMAP
10
60
80
00
B0
E0
80
80
80
80
80
80
ENDCHAR
STARTCHAR Rcommaaccent
ENCODING 342
SWIDTH 616 0
DWIDTH 10 0
BBX 8 16 1 -5
BITMAP
FE
C3
C1
C1
C1
C2
FC
C4
C2
C2
C3
00
08
10
10
10
ENDCHAR
STARTCHAR rcommaaccent
ENCODING 343
SWIDTH 346 0
DWIDTH 6 0
BBX 4 13 1 -5
BITMAP
B0
E0
80
80
80
80
80
80
00
80
80
80
80
ENDCHAR
STARTCHAR Rcaron
ENCODING 344
SWIDTH 616 0
DWIDTH 10 0
BBX 8 15 1 0
BITMAP
64
38
00
00
FE
C3
C1
C1
C1
C2
FC
C4
C2
C2
C3
ENDCHAR
STARTCHAR rcaron
ENCODING 345
SWIDTH 346 0
DWIDTH 6 0
BBX 5 12 0 0
BITMAP
C8
70
20
00
58
70
40
40
40
40
40
40
ENDCHAR
STARTCHAR Sacute
ENCODING 346
SWIDTH 542 0
DWIDTH 9 0
BBX 7 15 1 0
BITMAP
08
38
20
00
7E
80
80
80
E0
3C
06
02
02
06
FC
ENDCHAR
STARTCHAR sacute
ENCODING 347
SWIDTH 465 0
DWIDTH 7 0
BBX 6 12 1 0
BITMAP
18
70
40
00
FC
80
80
F0
18
04
0C
F8
ENDCHAR
STARTCHAR Scircumflex
ENCODING 348
SWIDTH 542 0
DWIDTH 9 0
BBX 7 15 1 0
BITMAP
10
28
44
00
7E
80
80
80
E0
3C
06
02
02
06
FC
ENDCHAR
STARTCHAR scircumflex
ENCODING 349
SWIDTH 465 0
DWIDTH 7 0
BBX 6 12 1 0
BITMAP
20
50
C8
00
FC
80
80
F0
18
04
0C
F8
ENDCHAR
STARTCHAR Scedilla
ENCODING 350
SWIDTH 542 0
DWIDTH 9 0
BBX 7 14 1 -3
BITMAP
7E
80
80
80
E0
3C
06
02
02
06
FC
10
08
1C
ENDCHAR
STARTCHAR scedilla
ENCODING 351
SWIDTH 465 0
DWIDTH 7 0
BBX 6 11 1 -3
BITMAP
FC
80
80
F0
18
04
0C
F8
20
18
38
ENDCHAR
STARTCHAR Scaron
ENCODING 352
SWIDTH 542 0
DWIDTH 9 0
BBX 7 15 1 0
BITMAP
64
38
00
00
7E
80
80
80
E0
3C
06
02
02
06
FC
ENDCHAR
STARTCHAR scaron
ENCODING 353
SWIDTH 465 0
DWIDTH 7 0
BBX 6 12 1 0
BITMAP
C8
30
20
00
FC
80
80
F0
18
04
0C
F8
ENDCHAR
STARTCHAR Tcedilla
ENCODING 354
SWIDTH 0 0
DWIDTH 0 0
BBX 1 1 0 0
BITMAP
00
ENDCHAR
STARTCHAR tcedilla
ENCODING 355
SWIDTH 351 0
DWIDTH 6 0
BBX 5 13 0 -3
BITMAP
20
20
F8
20
20
20
20
20
20
38
20
10
70
ENDCHAR
STARTCHAR Tcaron
ENCODING 356
SWIDTH 526 0
DWIDTH 8 0
BBX 8 15 0 0
BITMAP
26
1C
00
00
FF
08
08
08
08
08
08
08
08
08
08
ENDCHAR
STARTCHAR tcaron
ENCODING 357
SWIDTH 432 0
DWIDTH 7 0
BBX 7 11 0 0
BITMAP
02
22
22
FA
20
20
20
20
20
20
38
ENDCHAR
STARTCHAR Tbar
ENCODING 358
SWIDTH 529 0
DWIDTH 8 0
BBX 8 11 0 0
BITMAP
FF
08
08
08
08
7E
08
08
08
08
08
ENDCHAR
STARTCHAR tbar
ENCODING 359
SWIDTH 354 0
DWIDTH 6 0
BBX 5 10 0 0
BITMAP
20
20
F8
20
20
78
20
20
20
38
ENDCHAR
STARTCHAR Utilde
ENCODING 360
SWIDTH 644 0
DWIDTH 10 0
BBX 8 15 1 0
BITMAP
32
4E
00
00
C1
C1
C1
C1
C1
C1
C1
C1
C1
43
7E
ENDCHAR
STARTCHAR utilde
ENCODING 361
SWIDTH 531 0
DWIDTH 9 0
BBX 6 12 1 0
BITMAP
20
7C
00
00
84
84
84
84
84
84
C4
7C
ENDCHAR
STARTCHAR Umacron
ENCODING 362
SWIDTH 644 0
DWIDTH 10 0
BBX 8 14 1 0
BITMAP
3E
00
00
C1
C1
C1
C1
C1
C1
C1
C1
C1
43
7E
ENDCHAR
STARTCHAR umacron
ENCODING 363
SWIDTH 531 0
DWIDTH 9 0
BBX 6 11 1 0
BITMAP
78
00
00
84
84
84
84
84
84
C4
7C
ENDCHAR
STARTCHAR Ubreve
ENCODING 364
SWIDTH 644 0
DWIDTH 10 0
BBX 8 15 1 0
BITMAP
22
3C
00
00
C1
C1
C1
C1
C1
C1
C1
C1
C1
43
7E
ENDCHAR
STARTCHAR ubreve
ENCODING 365
SWIDTH 531 0
DWIDTH 9 0
BBX 6 12 1 0
BITMAP
44
48
30
00
84
84
84
84
84
84
C4
7C
ENDCHAR
STARTCHAR Uring
ENCODING 366
SWIDTH 644 0
DWIDTH 10 0
BBX 8 15 1 0
BITMAP
1C
24
1C
00
C1
C1
C1
C1
C1
C1
C1
C1
C1
43
7E
ENDCHAR
STARTCHAR uring
ENCODING 367
SWIDTH 531 0
DWIDTH 9 0
BBX 6 12 1 0
BITMAP
30
48
38
00
84
84
84
84
84
84
C4
7C
ENDCHAR
STARTCHAR Uhungarumlaut
ENCODING 368
SWIDTH 644 0
DWIDTH 10 0
BBX 8 15 1 0
BITMAP
1B
32
64
00
C1
C1
C1
C1
C1
C1
C1
C1
C1
43
7E
ENDCHAR
STARTCHAR uhungarumlaut
ENCODING 369
SWIDTH 531 0
DWIDTH 9 0
BBX 7 12 1 0
BITMAP
36
6C
48
00
84
84
84
84
84
84
C4
7C
ENDCHAR
STARTCHAR Uogonek
ENCODING 370
SWIDTH 645 0
DWIDTH 10 0
BBX 8 14 1 -3
BITMAP
C1
C1
C1
C1
C1
C1
C1
C1
C1
43
7E
08
18
1C
ENDCHAR
STARTCHAR uogonek
ENCODING 371
SWIDTH 531 0
DWIDTH 9 0
BBX 7 11 1 -3
BITMAP
84
84
84
84
84
84
C4
7C
04
08
0E
ENDCHAR
STARTCHAR Wcircumflex
ENCODING 372
SWIDTH 886 0
DWIDTH 14 0
BBX 14 15 0 0
BITMAP
0300
0680
0840
8000
430C
4308
4308
4288
6488
2498
2490
24D0
2C50
3850
1870
ENDCHAR
STARTCHAR wcircumflex
ENCODING 373
SWIDTH 762 0
DWIDTH 12 0
BBX 12 12 0 0
BITMAP
0200
0700
0980
0000
C630
4620
4620
6520
2960
2940
2940
38C0
ENDCHAR
STARTCHAR Ycircumflex
ENCODING 374
SWIDTH 538 0
DWIDTH 9 0
BBX 8 15 0 0
BITMAP
18
34
02
00
C1
43
22
24
14
18
08
08
08
08
08
ENDCHAR
STARTCHAR ycircumflex
ENCODING 375
SWIDTH 483 0
DWIDTH 8 0
BBX 7 16 0 -4
BITMAP
10
38
24
00
C2
42
46
64
24
24
28
18
08
18
10
10
ENDCHAR
STARTCHAR Ydieresis
ENCODING 376
SWIDTH 538 0
DWIDTH 9 0
BBX 8 14 0 0
BITMAP
26
00
00
C1
43
22
24
14
18
08
08
08
08
08
ENDCHAR
STARTCHAR Zacute
ENCODING 377
SWIDTH 536 0
DWIDTH 9 0
BBX 7 15 1 0
BITMAP
08
30
40
00
FE
06
04
08
18
10
20
60
C0
80
FE
ENDCHAR
STARTCHAR zacute
ENCODING 378
SWIDTH 455 0
DWIDTH 7 0
BBX 6 12 1 0
BITMAP
10
78
40
00
FC
08
18
30
20
40
80
FC
ENDCHAR
STARTCHAR Zdotaccent
ENCODING 379
SWIDTH 536 0
DWIDTH 9 0
BBX 7 14 1 0
BITMAP
10
00
00
FE
06
04
08
18
10
20
60
C0
80
FE
ENDCHAR
STARTCHAR zdotaccent
ENCODING 380
SWIDTH 455 0
DWIDTH 7 0
BBX 6 11 1 0
BITMAP
20
00
00
FC
08
18
30
20
40
80
FC
ENDCHAR
STARTCHAR Zcaron
ENCODING 381
SWIDTH 536 0
DWIDTH 9 0
BBX 7 15 1 0
BITMAP
4C
38
00
00
FE
06
04
08
18
10
20
60
C0
80
FE
ENDCHAR
STARTCHAR zcaron
ENCODING 382
SWIDTH 455 0
DWIDTH 7 0
BBX 6 12 1 0
BITMAP
C8
70
20
00
FC
08
18
30
20
40
80
FC
ENDCHAR
STARTCHAR florin
ENCODING 402
SWIDTH 560 0
DWIDTH 9 0
BBX 6 15 1 -4
BITMAP
1C
30
30
30
7C
30
30
30
30
30
30
30
20
20
C0
ENDCHAR
STARTCHAR Aringacute
ENCODING 506
SWIDTH 596 0
DWIDTH 10 0
BBX 9 16 0 0
BITMAP
0E00
1800
0C00
1200
1200
1C00
1600
1200
3200
2200
2300
2100
7F00
4100
4080
C080
ENDCHAR
STARTCHAR aringacute
ENCODING 507
SWIDTH 501 0
DWIDTH 8 0
BBX 7 15 1 0
BITMAP
08
30
40
30
48
70
00
F8
0C
04
7C
84
84
84
FE
ENDCHAR
STARTCHAR AEacute
ENCODING 508
SWIDTH 876 0
DWIDTH 14 0
BBX 13 15 0 0
BITMAP
0040
01C0
0100
0000
0FF8
1900
1100
1100
3100
21F0
2100
7F00
4100
4100
C1F8
ENDCHAR
STARTCHAR aeacute
ENCODING 509
SWIDTH 804 0
DWIDTH 13 0
BBX 11 12 1 0
BITMAP
0200
0F00
0800
0000
FBC0
0C60
0420
7C20
87E0
8400
8400
FBE0
ENDCHAR
STARTCHAR Oslashacute
ENCODING 510
SWIDTH 662 0
DWIDTH 11 0
BBX 9 17 1 -2
BITMAP
0400
1800
2100
0100
3E00
4300
C500
8580
8980
8980
9180
9180
F100
6300
7E00
4000
4000
ENDCHAR
STARTCHAR oslashacute
ENCODING 511
SWIDTH 528 0
DWIDTH 8 0
BBX 7 14 1 -2
BITMAP
08
30
44
04
7C
CC
96
96
96
A6
A4
7C
40
80
ENDCHAR
STARTCHAR Scommaaccent
ENCODING 536
SWIDTH 542 0
DWIDTH 9 0
BBX 7 16 1 -5
BITMAP
7E
80
80
80
E0
3C
06
02
02
06
FC
00
10
10
10
20
ENDCHAR
STARTCHAR scommaaccent
ENCODING 537
SWIDTH 465 0
DWIDTH 7 0
BBX 6 13 1 -5
BITMAP
FC
80
80
F0
18
04
0C
F8
00
60
40
40
40
ENDCHAR
STARTCHAR Tcommaaccent
ENCODING 538
SWIDTH 526 0
DWIDTH 8 0
BBX 8 16 0 -5
BITMAP
FF
08
08
08
08
08
08
08
08
08
08
00
08
08
08
10
ENDCHAR
STARTCHAR tcommaaccent
ENCODING 539
SWIDTH 351 0
DWIDTH 6 0
BBX 5 15 0 -5
BITMAP
20
20
F8
20
20
20
20
20
20
38
00
20
20
20
20
ENDCHAR
STARTCHAR circumflex
ENCODING 710
SWIDTH 236 0
DWIDTH 4 0
BBX 4 3 0 9
BITMAP
60
70
90
ENDCHAR
STARTCHAR caron
ENCODING 711
SWIDTH 236 0
DWIDTH 4 0
BBX 5 3 0 9
BITMAP
98
60
20
ENDCHAR
STARTCHAR breve
ENCODING 728
SWIDTH 236 0
DWIDTH 4 0
BBX 4 3 0 9
BITMAP
90
90
60
ENDCHAR
STARTCHAR dotaccent
ENCODING 729
SWIDTH 236 0
DWIDTH 4 0
BBX 1 1 1 10
BITMAP
80
ENDCHAR
STARTCHAR ring
ENCODING 730
SWIDTH 236 0
DWIDTH 4 0
BBX 4 3 0 9
BITMAP
60
90
E0
ENDCHAR
STARTCHAR ogonek
ENCODING 731
SWIDTH 450 0
DWIDTH 7 0
BBX 3 3 3 -3
BITMAP
40
80
E0
ENDCHAR
STARTCHAR tilde
ENCODING 732
SWIDTH 236 0
DWIDTH 4 0
BBX 5 2 0 10
BITMAP
80
F8
ENDCHAR
STARTCHAR hungarumlaut
ENCODING 733
SWIDTH 236 0
DWIDTH 4 0
BBX 6 3 -1 9
BITMAP
24
48
98
ENDCHAR
STARTCHAR pi
ENCODING 960
SWIDTH 560 0
DWIDTH 9 0
BBX 8 8 0 0
BITMAP
FF
22
22
22
22
22
22
23
ENDCHAR
STARTCHAR Wgrave
ENCODING 7808
SWIDTH 886 0
DWIDTH 14 0
BBX 14 15 0 0
BITMAP
0400
0380
0080
8000
430C
4308
4308
4288
6488
2498
2490
24D0
2C50
3850
1870
ENDCHAR
STARTCHAR wgrave
ENCODING 7809
SWIDTH 762 0
DWIDTH 12 0
BBX 12 12 0 0
BITMAP
0800
0600
0100
0000
C630
4620
4620
6520
2960
2940
2940
38C0
ENDCHAR
STARTCHAR Wacute
ENCODING 7810
SWIDTH 886 0
DWIDTH 14 0
BBX 14 15 0 0
BITMAP
0080
0300
0400
8000
430C
4308
4308
4288
6488
2498
2490
24D0
2C50
3850
1870
ENDCHAR
STARTCHAR wacute
ENCODING 7811
SWIDTH 762 0
DWIDTH 12 0
BBX 12 12 0 0
BITMAP
0100
0600
0800
0000
C630
4620
4620
6520
2960
2940
2940
38C0
ENDCHAR
STARTCHAR Wdieresis
ENCODING 7812
SWIDTH 886 0
DWIDTH 14 0
BBX 14 14 0 0
BITMAP
0480
0000
8000
430C
4308
4308
4288
6488
2498
2490
24D0
2C50
3850
1870
ENDCHAR
STARTCHAR wdieresis
ENCODING 7813
SWIDTH 762 0
DWIDTH 12 0
BBX 12 11 0 0
BITMAP
0900
0000
0000
C630
4620
4620
6520
2960
2940
2940
38C0
ENDCHAR
STARTCHAR uni1EAB
ENCODING 7851
SWIDTH 501 0
DWIDTH 8 0
BBX 7 13 1 0
BITMAP
F8
00
30
C8
00
F8
0C
04
7C
84
84
84
FE
ENDCHAR
STARTCHAR uni1EB0
ENCODING 7856
SWIDTH 594 0
DWIDTH 10 0
BBX 9 17 0 0
BITMAP
3000
0C00
0000
3200
1C00
0000
1C00
1600
1200
3200
2200
2300
2100
7F00
4100
4180
C080
ENDCHAR
STARTCHAR uni1EC5
ENCODING 7877
SWIDTH 506 0
DWIDTH 8 0
BBX 6 13 1 0
BITMAP
FC
00
30
48
04
78
C4
84
84
FC
80
C0
7C
ENDCHAR
STARTCHAR uni1ED7
ENCODING 7895
SWIDTH 528 0
DWIDTH 8 0
BBX 7 13 1 0
BITMAP
F8
00
30
48
04
7C
C4
86
86
86
86
C4
7C
ENDCHAR
STARTCHAR Ygrave
ENCODING 7922
SWIDTH 538 0
DWIDTH 9 0
BBX 8 15 0 0
BITMAP
20
1C
04
00
C1
43
22
24
14
18
08
08
08
08
08
ENDCHAR
STARTCHAR ygrave
ENCODING 7923
SWIDTH 483 0
DWIDTH 8 0
BBX 7 16 0 -4
BITMAP
20
38
04
00
C2
42
46
64
24
24
28
18
08
18
10
10
ENDCHAR
STARTCHAR uni1EF8
ENCODING 7928
SWIDTH 531 0
DWIDTH 9 0
BBX 8 15 0 0
BITMAP
12
2C
00
00
C1
42
22
34
1C
18
08
08
08
08
08
ENDCHAR
STARTCHAR uni1EF9
ENCODING 7929
SWIDTH 483 0
DWIDTH 8 0
BBX 7 16 0 -4
BITMAP
20
5C
00
00
C2
42
46
64
24
24
28
18
08
18
10
10
ENDCHAR
STARTCHAR endash
ENCODING 8211
SWIDTH 631 0
DWIDTH 10 0
BBX 8 1 1 4
BITMAP
FF
ENDCHAR
STARTCHAR emdash
ENCODING 8212
SWIDTH 1131 0
DWIDTH 18 0
BBX 16 1 1 4
BITMAP
FFFF
ENDCHAR
STARTCHAR quoteleft
ENCODING 8216
SWIDTH 219 0
DWIDTH 4 0
BBX 2 3 1 8
BITMAP
40
80
80
ENDCHAR
STARTCHAR quoteright
ENCODING 8217
SWIDTH 216 0
DWIDTH 3 0
BBX 2 3 1 8
BITMAP
C0
80
80
ENDCHAR
STARTCHAR quotesinglbase
ENCODING 8218
SWIDTH 218 0
DWIDTH 3 0
BBX 1 1 1 0
BITMAP
00
ENDCHAR
STARTCHAR quotedblleft
ENCODING 8220
SWIDTH 373 0
DWIDTH 6 0
BBX 4 3 1 8
BITMAP
50
90
B0
ENDCHAR
STARTCHAR quotedblright
ENCODING 8221
SWIDTH 377 0
DWIDTH 6 0
BBX 4 3 1 8
BITMAP
D0
90
B0
ENDCHAR
STARTCHAR quotedblbase
ENCODING 8222
SWIDTH 359 0
DWIDTH 6 0
BBX 5 4 0 -2
BITMAP
48
50
50
D0
ENDCHAR
STARTCHAR dagger
ENCODING 8224
SWIDTH 478 0
DWIDTH 8 0
BBX 6 12 1 -1
BITMAP
20
20
20
FC
20
20
20
20
20
20
20
20
ENDCHAR
STARTCHAR daggerdbl
ENCODING 8225
SWIDTH 521 0
DWIDTH 8 0
BBX 6 12 1 -1
BITMAP
10
10
10
FC
10
10
10
10
FC
10
10
10
ENDCHAR
STARTCHAR bullet
ENCODING 8226
SWIDTH 473 0
DWIDTH 8 0
BBX 4 4 2 2
BITMAP
F0
F0
F0
F0
ENDCHAR
STARTCHAR ellipsis
ENCODING 8230
SWIDTH 725 0
DWIDTH 12 0
BBX 10 2 1 0
BITMAP
88C0
88C0
ENDCHAR
STARTCHAR perthousand
ENCODING 8240
SWIDTH 835 0
DWIDTH 13 0
BBX 12 11 1 0
BITMAP
C400
A800
A800
A800
C800
1000
1000
1E70
2990
2990
2660
ENDCHAR
STARTCHAR guilsinglleft
ENCODING 8249
SWIDTH 301 0
DWIDTH 5 0
BBX 3 6 1 1
BITMAP
20
60
80
80
60
20
ENDCHAR
STARTCHAR guilsinglright
ENCODING 8250
SWIDTH 301 0
DWIDTH 5 0
BBX 3 6 1 1
BITMAP
80
C0
60
60
C0
80
ENDCHAR
STARTCHAR fraction
ENCODING 8260
SWIDTH 0 0
DWIDTH 0 0
BBX 7 11 -4 0
BITMAP
02
02
04
04
08
10
10
20
20
40
80
ENDCHAR
STARTCHAR zerosuperior
ENCODING 8304
SWIDTH 280 0
DWIDTH 4 0
BBX 4 6 0 7
BITMAP
60
D0
90
90
50
20
ENDCHAR
STARTCHAR foursuperior
ENCODING 8308
SWIDTH 280 0
DWIDTH 4 0
BBX 4 5 0 8
BITMAP
60
40
50
90
F0
ENDCHAR
STARTCHAR fivesuperior
ENCODING 8309
SWIDTH 280 0
DWIDTH 4 0
BBX 3 5 1 8
BITMAP
E0
80
E0
20
E0
ENDCHAR
STARTCHAR sixsuperior
ENCODING 8310
SWIDTH 280 0
DWIDTH 4 0
BBX 4 6 0 7
BITMAP
70
40
F0
D0
50
20
ENDCHAR
STARTCHAR sevensuperior
ENCODING 8311
SWIDTH 280 0
DWIDTH 4 0
BBX 4 6 0 7
BITMAP
F0
10
20
20
60
20
ENDCHAR
STARTCHAR eightsuperior
ENCODING 8312
SWIDTH 280 0
DWIDTH 4 0
BBX 4 6 0 7
BITMAP
70
90
70
D0
D0
20
ENDCHAR
STARTCHAR ninesuperior
ENCODING 8313
SWIDTH 280 0
DWIDTH 4 0
BBX 4 6 0 7
BITMAP
60
D0
D0
70
B0
60
ENDCHAR
STARTCHAR zeroinferior
ENCODING 8320
SWIDTH 280 0
DWIDTH 4 0
BBX 4 6 0 -2
BITMAP
20
50
90
90
50
60
ENDCHAR
STARTCHAR oneinferior
ENCODING 8321
SWIDTH 280 0
DWIDTH 4 0
BBX 2 5 1 -2
BITMAP
C0
40
40
40
40
ENDCHAR
STARTCHAR twoinferior
ENCODING 8322
SWIDTH 280 0
DWIDTH 4 0
BBX 3 6 1 -2
BITMAP
40
A0
20
40
80
E0
ENDCHAR
STARTCHAR threeinferior
ENCODING 8323
SWIDTH 280 0
DWIDTH 4 0
BBX 4 6 0 -2
BITMAP
60
10
10
70
10
E0
ENDCHAR
STARTCHAR fourinferior
ENCODING 8324
SWIDTH 280 0
DWIDTH 4 0
BBX 4 5 0 -2
BITMAP
60
50
50
F0
10
ENDCHAR
STARTCHAR fiveinferior
ENCODING 8325
SWIDTH 280 0
DWIDTH 4 0
BBX 4 5 0 -2
BITMAP
70
60
50
10
E0
ENDCHAR
STARTCHAR sixinferior
ENCODING 8326
SWIDTH 280 0
DWIDTH 4 0
BBX 4 6 0 -2
BITMAP
20
50
E0
90
50
60
ENDCHAR
STARTCHAR seveninferior
ENCODING 8327
SWIDTH 280 0
DWIDTH 4 0
BBX 3 5 1 -2
BITMAP
E0
60
40
40
80
ENDCHAR
STARTCHAR eightinferior
ENCODING 8328
SWIDTH 280 0
DWIDTH 4 0
BBX 4 6 0 -2
BITMAP
20
D0
50
70
90
60
ENDCHAR
STARTCHAR nineinferior
ENCODING 8329
SWIDTH 280 0
DWIDTH 4 0
BBX 4 6 0 -2
BITMAP
20
D0
90
70
10
60
ENDCHAR
STARTCHAR Euro
ENCODING 8364
SWIDTH 560 0
DWIDTH 9 0
BBX 8 11 0 0
BITMAP
0F
31
20
20
FE
60
FE
60
20
20
1F
ENDCHAR
STARTCHAR trademark
ENCODING 8482
SWIDTH 677 0
DWIDTH 11 0
BBX 9 5 1 5
BITMAP
F980
2D80
2E80
2A80
2880
ENDCHAR
STARTCHAR Omega
ENCODING 8486
SWIDTH 560 0
DWIDTH 9 0
BBX 7 11 1 0
BITMAP
38
6C
C6
82
82
82
82
C6
44
6C
EE
ENDCHAR
STARTCHAR partialdiff
ENCODING 8706
SWIDTH 560 0
DWIDTH 9 0
BBX 7 12 1 0
BITMAP
30
CC
04
06
02
7A
C6
82
82
86
C4
78
ENDCHAR
STARTCHAR Delta
ENCODING 8710
SWIDTH 560 0
DWIDTH 9 0
BBX 7 11 1 0
BITMAP
38
28
28
28
4C
44
44
44
86
82
FE
ENDCHAR
STARTCHAR product
ENCODING 8719
SWIDTH 560 0
DWIDTH 9 0
BBX 8 15 0 -3
BITMAP
FF
22
22
22
22
22
22
22
22
22
22
22
22
22
22
ENDCHAR
STARTCHAR summation
ENCODING 8721
SWIDTH 560 0
DWIDTH 9 0
BBX 7 15 1 -3
BITMAP
FE
80
C0
60
20
10
08
08
10
30
60
40
80
FE
FE
ENDCHAR
STARTCHAR minus
ENCODING 8722
SWIDTH 560 0
DWIDTH 9 0
BBX 7 2 1 3
BITMAP
FE
FE
ENDCHAR
STARTCHAR radical
ENCODING 8730
SWIDTH 560 0
DWIDTH 9 0
BBX 9 14 0 -2
BITMAP
0080
0180
0100
0100
0100
C200
4200
6200
2600
2400
2400
3400
1C00
1800
ENDCHAR
STARTCHAR infinity
ENCODING 8734
SWIDTH 560 0
DWIDTH 9 0
BBX 8 5 0 2
BITMAP
77
49
C9
59
77
ENDCHAR
STARTCHAR integral
ENCODING 8747
SWIDTH 560 0
DWIDTH 9 0
BBX 6 15 1 -3
BITMAP
1C
10
10
10
10
10
10
10
10
10
10
10
10
10
E0
ENDCHAR
STARTCHAR approxequal
ENCODING 8776
SWIDTH 560 0
DWIDTH 9 0
BBX 7 5 1 1
BITMAP
FA
0C
00
FE
0C
ENDCHAR
STARTCHAR notequal
ENCODING 8800
SWIDTH 560 0
DWIDTH 9 0
BBX 7 9 1 0
BITMAP
08
0C
08
FE
10
10
FE
20
60
ENDCHAR
STARTCHAR lessequal
ENCODING 8804
SWIDTH 560 0
DWIDTH 9 0
BBX 7 8 1 0
BITMAP
06
1C
E0
E0
1C
02
00
FE
ENDCHAR
STARTCHAR greaterequal
ENCODING 8805
SWIDTH 560 0
DWIDTH 9 0
BBX 7 8 1 0
BITMAP
80
70
0E
0E
70
80
00
FE
ENDCHAR
STARTCHAR lozenge
ENCODING 9674
SWIDTH 560 0
DWIDTH 9 0
BBX 7 3 1 4
BITMAP
38
C6
78
ENDCHAR
STARTCHAR dotlessj
ENCODING 63166
SWIDTH 219 0
DWIDTH 4 0
BBX 3 12 -1 -4
BITMAP
20
20
20
20
20
20
20
20
20
20
C0
80
ENDCHAR
STARTCHAR commaaccent
ENCODING 63171
SWIDTH 170 0
DWIDTH 3 0
BBX 2 4 0 -5
BITMAP
40
40
40
80
ENDCHAR
STARTCHAR .notdef
ENCODING -1
SWIDTH 235 0
DWIDTH 4 0
BBX 1 1 0 0
BITMAP
00
ENDCHAR
STARTCHAR .null
ENCODING -1
SWIDTH 0 0
DWIDTH 0 0
BBX 1 1 0 0
BITMAP
00
ENDCHAR
STARTCHAR nonmarkingreturn
ENCODING -1
SWIDTH 333 0
DWIDTH 5 0
BBX 1 1 0 0
BITMAP
00
ENDCHAR
STARTCHAR questiondown.cap
ENCODING -1
SWIDTH 438 0
DWIDTH 7 0
BBX 5 11 1 0
BITMAP
30
30
00
30
30
60
C0
80
80
80
F8
ENDCHAR
STARTCHAR endash.cap
ENCODING -1
SWIDTH 633 0
DWIDTH 10 0
BBX 8 1 1 4
BITMAP
FF
ENDCHAR
STARTCHAR emdash.cap
ENCODING -1
SWIDTH 1133 0
DWIDTH 18 0
BBX 16 1 1 4
BITMAP
FFFF
ENDCHAR
STARTCHAR periodcentered.cap
ENCODING -1
SWIDTH 216 0
DWIDTH 3 0
BBX 1 2 1 4
BITMAP
80
80
ENDCHAR
STARTCHAR exclamdown.cap
ENCODING -1
SWIDTH 247 0
DWIDTH 4 0
BBX 2 11 1 0
BITMAP
C0
C0
00
00
C0
C0
C0
C0
C0
C0
C0
ENDCHAR
STARTCHAR parenleft.cap
ENCODING -1
SWIDTH 264 0
DWIDTH 4 0
BBX 3 14 1 -2
BITMAP
60
40
C0
C0
80
80
80
80
80
80
C0
40
40
60
ENDCHAR
STARTCHAR parenright.cap
ENCODING -1
SWIDTH 264 0
DWIDTH 4 0
BBX 2 14 1 -1
BITMAP
80
80
C0
40
40
40
40
40
40
40
40
C0
80
80
ENDCHAR
STARTCHAR bracketleft.cap
ENCODING -1
SWIDTH 329 0
DWIDTH 5 0
BBX 4 13 1 -1
BITMAP
F0
80
80
80
80
80
80
80
80
80
80
80
F0
ENDCHAR
STARTCHAR bracketright.cap
ENCODING -1
SWIDTH 329 0
DWIDTH 5 0
BBX 3 13 1 -1
BITMAP
E0
20
20
20
20
20
20
20
20
20
20
20
E0
ENDCHAR
STARTCHAR braceleft.cap
ENCODING -1
SWIDTH 352 0
DWIDTH 6 0
BBX 5 15 0 -2
BITMAP
08
38
20
20
20
20
20
C0
60
20
20
20
20
38
08
ENDCHAR
STARTCHAR braceright.cap
ENCODING -1
SWIDTH 352 0
DWIDTH 6 0
BBX 4 15 1 -2
BITMAP
80
C0
60
60
60
60
20
10
20
60
60
60
60
C0
80
ENDCHAR
ENDFONT
